<?xml version="1.0" encoding="UTF-8"?>
<svg width="196px" height="195px" viewBox="0 0 196 195" version="1.1" xmlns="http://www.w3.org/2000/svg" xmlns:xlink="http://www.w3.org/1999/xlink">
    <!-- Generator: Sketch 61 (89581) - https://sketch.com -->
    <title>编组 3</title>
    <desc>Created with Sketch.</desc>
    <g id="页面-1" stroke="none" stroke-width="1" fill="none" fill-rule="evenodd">
        <g id="logo方案3" transform="translate(-302.000000, -144.000000)" fill-rule="nonzero">
            <g id="编组-3" transform="translate(302.000000, 144.000000)">
                <g id="编组" transform="translate(0.000000, 148.000000)">
                    <path d="M29.808,37.7560938 C31.536,37.7880938 32.984,37.6440938 34.152,37.3240938 C35.32,37.0040938 36.272,36.4280938 37.008,35.5960938 C37.744,34.7640938 38.288,33.6360938 38.64,32.2120938 C38.992,30.7880938 39.216,28.9720938 39.312,26.7640938 L39.888,13.6600938 L33.2197441,13.6600938 L36.528,7.61209375 L35.616,4.15609375 L12.1970391,4.83129883 L13.1494316,1.24780273 L4.032,9.63851221e-11 L4.032,10.7800938 L0.624,10.3960938 L0.158220703,17.1160938 C2.16474023,17.1160938 3.36,17.1160938 3.744,17.1160938 L4.032,37.7560938 L29.808,37.7560938 Z M26.304,13.6600938 L11.712,13.6600938 L11.712,9.48409375 L28.0976738,8.85351563 L26.304,13.6600938 Z M32.256,23.5000938 L25.92,23.4040938 L26.064,18.2680938 L32.256,18.2200938 L32.256,23.5000938 Z M18.384,23.3080938 L11.568,23.2120938 L11.568,18.4120938 L18.288,18.3640938 L18.384,23.3080938 Z M25.632,32.6200938 L25.776,28.3000938 L32.256,28.2520938 L32.256,32.5720938 L25.632,32.6200938 Z M11.52,32.7640938 L11.52,28.3960938 L18.48,28.3480938 L18.576,32.7160938 L11.52,32.7640938 Z M42.72,45.7720938 L42.72,39.2920938 L5.68434189e-13,40.4440938 L0.192,45.6280938 L42.72,45.7720938 Z M76.5232109,7.18009375 L75.872,2.38009375 L68,2.47609375 L68.384,7.18009375 L76.5232109,7.18009375 Z M91.616,7.13209375 L91.76,2.52409375 L83.984,2.52409375 L84.272,7.03609375 L91.616,7.13209375 Z M53.6,44.1400938 L61.088,44.0440938 L60.5468926,21.9287109 L64.64,22.5925293 L64.64,15.9768066 L60.896,16.7320938 L61.088,4.39609375 L52.979998,4.39609375 L53.408,12.6520938 L49.3188652,11.9377441 L49.3188652,18.2200938 L54.0503105,18.2200938 L53.6,44.1400938 Z M84.032,26.6680938 C89.3718438,26.6680938 89.856,25.6840938 91.424,23.7160938 C92.992,21.7480938 93.728,18.8760938 93.632,15.1000938 L93.44,8.71609375 L67.088,8.95609375 L67.424,26.6680938 L84.032,26.6680938 Z M75.152,21.3400938 L75.296,14.1880938 L85.472,14.1400938 L85.376,21.0520938 L75.152,21.3400938 Z M70.184,45.0040938 C71.288,45.0680938 72.264,44.9800938 73.112,44.7400938 C73.96,44.5000938 74.68,44.0680938 75.272,43.4440938 C75.864,42.8200938 76.36,41.8840938 76.76,40.6360938 C77.16,39.3880938 77.456,37.7800938 77.648,35.8120938 C77.84,33.8440938 77.968,31.4200938 78.032,28.5400938 L69.68,28.0600938 L69.344,38.3320938 L67.6745781,38.6826172 L66.464,44.6680938 C67.84,44.8280938 69.08,44.9400938 70.184,45.0040938 Z M94.352,44.2840938 L94.496,38.5240938 L89.5027031,39.2920938 L90.8,28.1176758 L82.352,28.6840938 L82.976,44.2360938 L94.352,44.2840938 Z" id="鱼悦" fill="#E94E38"></path>
                    <path d="M103.024,45.0040937 L131.872,44.5240937 C133.504,44.4920937 134.92,44.3560937 136.12,44.1160937 C137.32,43.8760937 138.328,43.3240937 139.144,42.4600937 C139.96,41.5960937 140.584,40.3320937 141.016,38.6680937 C141.448,37.0040937 141.712,34.7320937 141.808,31.8520937 L145.161395,-6.53699317e-13 L101.263934,2.52409375 L103.024,45.0040937 Z M131.98659,39.2920937 L109.984,39.2920937 L110.656,8.62009375 L134.608,7.75609375 L134.210278,36.7898325 L131.98659,39.2920937 Z M121.168,36.9880937 L128.998797,36.2440937 L130.670074,33.3806994 L130.432,19.6120937 L132.784,19.6120937 L132.784,13.8040937 L130.336,13.9480937 L130.288,10.1080937 L122.176,10.1080937 L122.176,14.1400938 L112.24,14.7640937 L112.288,19.7080937 L117.161395,19.6120937 L113.728,30.7000937 L111.568,30.6520937 L111.808,36.8920937 C113.6,37.0840937 115.064,36.8680937 116.2,36.2440937 C117.336,35.6200937 118.264,34.5880937 118.984,33.1480937 C119.464,32.1880937 120.88,27.6920937 123.232,19.6600937 L123.088,31.6120937 L120.256,31.9480937 L121.168,36.9880937 Z M173.808,38.8120937 L181.392,38.6680937 L181.344,35.9320937 L192.864,36.0280937 L191.39284,30.9400937 L181.344,30.9400937 L181.296,28.4920937 L190.464,28.3960937 L189.888,22.9960938 L181.248,24.0760937 L181.248,21.9640937 C182.464,21.9000937 183.64,21.7800937 184.776,21.6040937 C185.912,21.4280937 186.92,21.1400937 187.8,20.7400937 C188.68,20.3400937 189.376,19.7960937 189.888,19.1080937 C190.4,18.4200937 190.64,17.5320937 190.608,16.4440937 L190.56,15.6760937 L193.584,15.6760937 L193.344,9.91609375 L191.39284,9.91609375 L191.39284,3.30009375 L181.056,3.30009375 L181.248,0.954589844 L172.690203,0.954589844 L172.690203,3.30009375 L165.271746,3.30009375 L166.8,8.90809375 L173.472,8.62009375 L173.52,10.7800937 L164.16,11.1640937 L165.271746,15.6760937 L173.568,15.5320937 L173.568,17.7880937 L166.608,17.7400937 L167.521746,22.1560937 L173.616,22.1560937 L173.664,24.3640937 L166.464,24.6520937 L167.521746,28.5400937 L173.712,28.5400937 L173.712,31.1320937 L164.4,31.3240937 L166.464,36.0280937 L173.76,35.8360937 L173.808,38.8120937 Z M152.184,46.3000937 C153.128,46.4600937 154.04,46.4680937 154.92,46.3240937 C155.8,46.1800937 156.632,45.7800937 157.416,45.1240937 C158.2,44.4680937 158.848,43.3560937 159.36,41.7880937 L163.248,44.8120937 L195.712176,45.9640937 L193.728,39.4840937 L166.56,39.6760937 L160.704,35.5960937 L163.882098,18.6520937 L159.888,18.6520937 L164.737566,0.330566406 L151.248,1.16943359 L150.144,8.04409375 L154.944,7.80409375 L150.144,24.3160937 L155.52,24.3160937 L154.032,30.9880937 L151.248,28.5454102 L149.184,33.9160937 L152.784,36.7480937 L152.784,40.934082 L149.424,40.1080937 L149.568,45.9640937 C150.368,46.0280937 151.24,46.1400937 152.184,46.3000937 Z M181.152,10.4440937 L181.104,8.28409375 L184.608,8.09209375 L184.56,10.3000937 L181.152,10.4440937 Z M184.416,17.8840937 L181.2,17.8840937 L181.2,15.5800937 L184.464,15.6280937 L184.416,17.8840937 Z" id="团建" fill="#595959"></path>
                </g>
                <g id="海豚备份" transform="translate(98.000000, 63.000000) scale(-1, 1) translate(-98.000000, -63.000000) translate(42.000000, 0.000000)" fill="#E94E38">
                    <path d="M96.8635216,6.3063879 C91.9368256,12.8212644 89.8572388,17.6039613 91.2555652,24.4684406 C97.8608852,30.0555651 107.071422,41.9303538 110.0715,53.4656171 C118.110333,84.4268828 100.281548,116.256302 70.280777,124.555331 C67.9373691,125.204297 65.5939612,125.672756 63.2505533,125.999387 C77.9719618,123.111274 89.0881275,109.762344 89.0881275,93.7358919 C89.0881275,80.625986 82.064565,69.1773553 71.5596522,63.1674666 C67.5213991,60.8571712 70.2608643,75.4436035 65.3061523,74.487793 C53.8156738,71.970459 51.8349793,58.4928307 48.9454795,58.6669827 C26.0981154,60.0440078 13.4249726,75.2355057 10.6464844,77.0976562 C7.87585449,77.2810059 8.74756719,74.8383789 8.2590332,74.8383789 C4.8001709,75.8331299 4.31408691,72.6845703 5.08300781,70.5869141 C5.28807364,70.1754445 6.46697324,65.0137738 6.53564453,64.5453149 C1.5522338,45.3486328 14.1505808,24.7306045 32.4128529,15.8943521 C43.8122853,10.500628 52.7738915,10.500628 54.9670809,10.4490545 C67.5854311,2.72592923 74.1680163,1.027159 90.1099501,0 C104.115474,0 96.8635216,6.3063879 96.8635216,6.3063879 Z M28.9946266,58 C30.6485131,58 31.9892531,56.6568542 31.9892531,55 C31.9892531,53.3431458 30.6485131,52 28.9946266,52 C27.34074,52 26,53.3431458 26,55 C26,56.6568542 27.34074,58 28.9946266,58 Z M85.8391169,95.9148705 C85.73611,98.6654549 84.6373693,108.494496 74.8688778,116.346555 C64.6540229,124.533842 54.7138531,126.730011 46.2501162,125.801689 C39.3529431,124.796007 32.9879726,121.968062 27.2667955,118.228987 L25.957749,117.352238 C25.854742,117.240495 25.7517351,117.09437 25.7517351,116.943948 C25.7517351,116.643103 25.9920846,116.385235 26.2667698,116.385235 L26.4041124,116.385235 L26.4041124,116.346555 L29.1552561,116.905268 C36.1082245,118.28056 47.1127993,119.062757 58.323388,114.713396 C58.8384227,114.524293 59.3534574,114.300808 59.8684921,114.077323 C69.8816251,110.394119 78.7530978,104.106455 85.8391169,95.9148705 L85.8391169,95.9148705 Z M0.545078392,78.723718 C0.691004891,78.723718 0.802595743,78.7752914 0.892726816,78.8526516 L1.01719354,78.9858831 C15.9274481,96.2844803 37.618993,107.179373 61.81704,107.179373 C64.1346962,107.179373 66.4223087,107.063333 68.6712935,106.878528 C40.3014654,119.870742 18.8288103,109.121973 13.3866103,105.193795 C6.37355443,99.3788878 2.6824724,90.2374924 0.373400159,80.9413767 L0.0343356468,79.5488933 C0.0343356468,79.4371508 0,79.3597906 0,79.2867282 C0,78.9858831 0.257517351,78.723718 0.545078392,78.723718 Z M46.7788083,60.7666672 C46.2336426,65.9185791 52.9927702,68.2621673 44.1233949,69.6890517 C44.1240523,69.6935157 37.55192,70.5018961 31.6014749,66.4070391 C34.036932,63.2557592 40.3747153,61.3802366 46.7788083,60.7666672 Z" id="形状"></path>
                </g>
            </g>
        </g>
    </g>
</svg>