<?xml version="1.0" encoding="UTF-8"?>
<svg width="112px" height="126px" viewBox="0 0 112 126" version="1.1" xmlns="http://www.w3.org/2000/svg" xmlns:xlink="http://www.w3.org/1999/xlink">
    <!-- Generator: Sketch 61 (89581) - https://sketch.com -->
    <title>海豚备份</title>
    <desc>Created with Sketch.</desc>
    <g id="页面-1" stroke="none" stroke-width="1" fill="none" fill-rule="evenodd">
        <g id="logo方案3" transform="translate(-344.000000, -144.000000)" fill="#E94E38" fill-rule="nonzero">
            <g id="编组-3" transform="translate(302.000000, 144.000000)">
                <g id="海豚备份" transform="translate(98.000000, 63.000000) scale(-1, 1) translate(-98.000000, -63.000000) translate(42.000000, 0.000000)">
                    <path d="M96.8635216,6.3063879 C91.9368256,12.8212644 89.8572388,17.6039613 91.2555652,24.4684406 C97.8608852,30.0555651 107.071422,41.9303538 110.0715,53.4656171 C118.110333,84.4268828 100.281548,116.256302 70.280777,124.555331 C67.9373691,125.204297 65.5939612,125.672756 63.2505533,125.999387 C77.9719618,123.111274 89.0881275,109.762344 89.0881275,93.7358919 C89.0881275,80.625986 82.064565,69.1773553 71.5596522,63.1674666 C67.5213991,60.8571712 70.2608643,75.4436035 65.3061523,74.487793 C53.8156738,71.970459 51.8349793,58.4928307 48.9454795,58.6669827 C26.0981154,60.0440078 13.4249726,75.2355057 10.6464844,77.0976562 C7.87585449,77.2810059 8.74756719,74.8383789 8.2590332,74.8383789 C4.8001709,75.8331299 4.31408691,72.6845703 5.08300781,70.5869141 C5.28807364,70.1754445 6.46697324,65.0137738 6.53564453,64.5453149 C1.5522338,45.3486328 14.1505808,24.7306045 32.4128529,15.8943521 C43.8122853,10.500628 52.7738915,10.500628 54.9670809,10.4490545 C67.5854311,2.72592923 74.1680163,1.027159 90.1099501,0 C104.115474,0 96.8635216,6.3063879 96.8635216,6.3063879 Z M28.9946266,58 C30.6485131,58 31.9892531,56.6568542 31.9892531,55 C31.9892531,53.3431458 30.6485131,52 28.9946266,52 C27.34074,52 26,53.3431458 26,55 C26,56.6568542 27.34074,58 28.9946266,58 Z M85.8391169,95.9148705 C85.73611,98.6654549 84.6373693,108.494496 74.8688778,116.346555 C64.6540229,124.533842 54.7138531,126.730011 46.2501162,125.801689 C39.3529431,124.796007 32.9879726,121.968062 27.2667955,118.228987 L25.957749,117.352238 C25.854742,117.240495 25.7517351,117.09437 25.7517351,116.943948 C25.7517351,116.643103 25.9920846,116.385235 26.2667698,116.385235 L26.4041124,116.385235 L26.4041124,116.346555 L29.1552561,116.905268 C36.1082245,118.28056 47.1127993,119.062757 58.323388,114.713396 C58.8384227,114.524293 59.3534574,114.300808 59.8684921,114.077323 C69.8816251,110.394119 78.7530978,104.106455 85.8391169,95.9148705 L85.8391169,95.9148705 Z M0.545078392,78.723718 C0.691004891,78.723718 0.802595743,78.7752914 0.892726816,78.8526516 L1.01719354,78.9858831 C15.9274481,96.2844803 37.618993,107.179373 61.81704,107.179373 C64.1346962,107.179373 66.4223087,107.063333 68.6712935,106.878528 C40.3014654,119.870742 18.8288103,109.121973 13.3866103,105.193795 C6.37355443,99.3788878 2.6824724,90.2374924 0.373400159,80.9413767 L0.0343356468,79.5488933 C0.0343356468,79.4371508 0,79.3597906 0,79.2867282 C0,78.9858831 0.257517351,78.723718 0.545078392,78.723718 Z M46.7788083,60.7666672 C46.2336426,65.9185791 52.9927702,68.2621673 44.1233949,69.6890517 C44.1240523,69.6935157 37.55192,70.5018961 31.6014749,66.4070391 C34.036932,63.2557592 40.3747153,61.3802366 46.7788083,60.7666672 Z" id="形状"></path>
                </g>
            </g>
        </g>
    </g>
</svg>